<?xml version="1.0" encoding="utf-8"?>
<!-- Generator: Adobe Illustrator 27.1.0, SVG Export Plug-In . SVG Version: 6.00 Build 0)  -->
<svg version="1.1" id="Capa_1" xmlns="http://www.w3.org/2000/svg" xmlns:xlink="http://www.w3.org/1999/xlink" x="0px" y="0px"
	 viewBox="0 0 20 20" style="enable-background:new 0 0 20 20;" xml:space="preserve">
<style type="text/css">
	.st0{fill-rule:evenodd;clip-rule:evenodd;fill:#BCC2C6;}
</style>
<path class="st0" d="M10,2.2c4.4,0,8,3.6,8,8c0,3.4-2.2,6.5-5.4,7.6c-0.4,0.1-0.6-0.2-0.6-0.4c0-0.3,0-1.1,0-2.2
	c0-0.8-0.2-1.2-0.5-1.5c1.8-0.2,3.7-0.9,3.7-3.9c0-0.9-0.3-1.6-0.8-2.2c0.1-0.2,0.4-1-0.1-2.1c0,0-0.7-0.2-2.2,0.8
	c-0.6-0.2-1.3-0.3-2-0.3S8.7,6.1,8,6.3c-1.5-1-2.2-0.8-2.2-0.8C5.4,6.6,5.7,7.4,5.7,7.6C5.2,8.2,4.9,8.9,4.9,9.8
	c0,3.1,1.9,3.8,3.6,4c-0.2,0.2-0.4,0.6-0.5,1.1c-0.5,0.2-1.6,0.6-2.3-0.7c-0.2-0.2-0.6-0.8-1.2-0.8c-0.7,0-0.3,0.4,0,0.5
	C4.8,14,5.2,14.7,5.3,15C5.5,15.4,6,16.3,8,15.9c0,0.7,0,1.3,0,1.5c0,0.2-0.2,0.4-0.6,0.4C4.2,16.7,2,13.6,2,10.2
	C2,5.8,5.6,2.2,10,2.2z"/>
</svg>
