<?xml version="1.0" encoding="utf-8"?>
<!-- Generator: Adobe Illustrator 27.1.0, SVG Export Plug-In . SVG Version: 6.00 Build 0)  -->
<svg version="1.1" id="Capa_1" xmlns="http://www.w3.org/2000/svg" xmlns:xlink="http://www.w3.org/1999/xlink" x="0px" y="0px"
	 viewBox="0 0 20 20" style="enable-background:new 0 0 20 20;" xml:space="preserve">
<style type="text/css">
	.st0{fill:#BDC2C7;}
</style>
<path class="st0" d="M14.5,2.5h-9c-1.7,0-3,1.3-3,3v9c0,1.7,1.3,3,3,3h9c1.7,0,3-1.4,3-3v-9C17.5,3.8,16.2,2.5,14.5,2.5 M13,4.7h2.3
	V7H13V4.7z M10,7c1.7,0,3,1.3,3,3c0,1.7-1.3,3-3,3s-3-1.3-3-3S8.3,7,10,7 M16,14.5c0,0.8-0.7,1.5-1.5,1.5h-9C4.7,16,4,15.4,4,14.5
	V9.2h1.6c0,0.2-0.1,0.5-0.1,0.8c0,2.5,2,4.5,4.5,4.5c2.5,0,4.5-2,4.5-4.5c0-0.3,0-0.5-0.1-0.8H16L16,14.5L16,14.5z"/>
</svg>
