<?xml version="1.0" encoding="utf-8"?>
<!-- Generator: Adobe Illustrator 27.1.0, SVG Export Plug-In . SVG Version: 6.00 Build 0)  -->
<svg version="1.1" id="Capa_1" xmlns="http://www.w3.org/2000/svg" xmlns:xlink="http://www.w3.org/1999/xlink" x="0px" y="0px"
	 viewBox="0 0 20 20" style="enable-background:new 0 0 20 20;" xml:space="preserve">
<style type="text/css">
	.st0{fill:#BDC2C7;}
</style>
<path class="st0" d="M18.2,3.3c-0.7,0.4-1.5,0.7-2.3,0.9c-0.7-0.7-1.6-1.1-2.6-1.1c-2,0-3.6,1.6-3.6,3.5c0,0.3,0,0.5,0.1,0.8
	c-3-0.1-5.6-1.6-7.4-3.7C2.1,4.3,1.9,4.9,1.9,5.5c0,1.2,0.6,2.3,1.6,2.9C2.9,8.4,2.4,8.3,1.9,8c0,0,0,0,0,0c0,1.7,1.2,3.1,2.9,3.5
	c-0.3,0.1-0.6,0.1-0.9,0.1c-0.2,0-0.5,0-0.7-0.1C3.6,13,4.9,14,6.5,14C5.3,15,3.7,15.5,2,15.5c-0.3,0-0.6,0-0.9,0
	c1.6,1,3.5,1.6,5.5,1.6c6.6,0,10.2-5.4,10.2-10c0-0.2,0-0.3,0-0.5c0.7-0.5,1.3-1.1,1.8-1.8C18,5,17.3,5.2,16.6,5.3
	C17.3,4.9,17.9,4.2,18.2,3.3"/>
</svg>
